<?xml version="1.0" encoding="UTF-8"?>
<svg id="Layer_1" data-name="Layer 1" xmlns="http://www.w3.org/2000/svg" viewBox="0 0 589.02 124.2">
  <defs>
    <style>
      .cls-1 {
        fill: #fff;
      }
    </style>
  </defs>
  <g>
    <path class="cls-1" d="m205.96,37.77h-24.21v-12.55h62.08v12.55h-24.21v63.07h-13.65v-63.07Z"/>
    <path class="cls-1" d="m305.12,64.62v36.21h-12.99v-33.57c0-7.71-4.95-13.21-12-13.21-7.59,0-13.87,5.5-13.87,12.33v34.45h-13.43V23.9h13.43v27.84c3.41-5.5,10.13-9.13,17.72-9.13,12.44,0,21.13,9.13,21.13,22.01Z"/>
    <path class="cls-1" d="m358.72,84.54l8.47,8.8c-4.95,5.28-14.86,8.8-23.11,8.8-16.29,0-29.72-12.44-29.72-29.94s12.77-29.61,28.95-29.61c17.61,0,27.85,13.32,27.85,34.34h-42.92c1.65,7.81,7.59,13.32,15.74,13.32,5.28,0,11.56-2.42,14.75-5.72Zm-30.38-17.83h29.94c-1.54-7.15-6.38-12.22-14.42-12.22-7.48,0-13.54,4.73-15.52,12.22Z"/>
    <path class="cls-1" d="m376.77,93.57l6.05-9.36c5.5,3.96,11.89,6.6,19.04,6.6,5.39,0,9.13-2.31,9.13-5.83,0-4.4-4.95-5.83-11.45-7.59-12.33-3.19-20.14-6.71-20.25-16.84,0-10.68,8.8-17.94,21.46-17.94,7.81,0,15.63,2.75,21.79,6.82l-5.61,9.79c-5.39-3.41-11.23-5.17-16.18-5.17s-8.37,1.87-8.37,5.06c0,3.63,2.97,4.73,11.67,7.26,9.58,2.64,19.92,5.94,19.92,17.83,0,10.9-9.03,17.94-22.34,17.94-8.69,0-18.05-3.08-24.87-8.58Z"/>
    <path class="cls-1" d="m432.57,27.64c0-4.07,3.41-7.59,7.71-7.59s7.59,3.52,7.59,7.59-3.41,7.71-7.59,7.71-7.71-3.63-7.71-7.71Zm.88,16.29h13.43v56.9h-13.43v-56.9Z"/>
    <path class="cls-1" d="m511.48,43.93v56.9h-13.43v-7.59c-3.52,5.28-10.12,8.92-17.61,8.92-12.44,0-21.13-9.13-21.13-22.01v-36.21h12.99v33.57c0,7.7,4.95,13.21,12,13.21s12.88-4.73,13.76-10.79v-35.99h13.43Z"/>
    <path class="cls-1" d="m520.17,93.57l6.05-9.36c5.5,3.96,11.89,6.6,19.04,6.6,5.39,0,9.13-2.31,9.13-5.83,0-4.4-4.95-5.83-11.45-7.59-12.33-3.19-20.14-6.71-20.25-16.84,0-10.68,8.8-17.94,21.46-17.94,7.81,0,15.63,2.75,21.79,6.82l-5.61,9.79c-5.39-3.41-11.23-5.17-16.18-5.17s-8.37,1.87-8.37,5.06c0,3.63,2.97,4.73,11.67,7.26,9.58,2.64,19.92,5.94,19.92,17.83,0,10.9-9.03,17.94-22.34,17.94-8.69,0-18.05-3.08-24.87-8.58Z"/>
  </g>
  <g>
    <rect class="cls-1" x="76.12" y="16.81" width="59.88" height="14.85"/>
    <rect class="cls-1" x="38.42" y="16.81" width="23.45" height="14.85"/>
    <rect class="cls-1" x="48.57" y="43.08" width="50.72" height="14.85"/>
    <rect class="cls-1" x="112.87" y="43.08" width="34.22" height="14.85"/>
    <rect class="cls-1" x="32.87" y="68.36" width="66.43" height="14.85"/>
    <rect class="cls-1" x="17.6" y="93.64" width="45.09" height="14.85"/>
    <rect class="cls-1" x="74.4" y="93.64" width="42.71" height="14.85"/>
    <rect class="cls-1" x="112.87" y="68.36" width="21.41" height="14.85"/>
  </g>
</svg>